# xmcd
#
# Track frame offsets: 
#        150
#        15295
#        30900
#        44940
#        56007
#        70367
#        78107
#        95602
#        111605
#        125285
#        144710
#        157747
#        175375
#        191865
#
# Disc length: 2820 seconds
#
# Revision: 2
# Processed by: cddbd v1.5.2PL0 Copyright (c) Steve Scherf et al.
# Submitted via: ExactAudioCopy v1.0b3
#
DISCID=c00b020e
DTITLE=Krauss, Alison and Union Station - So Long So Wrong
DYEAR=1997
DGENRE=Country
TTITLE0=So Long, So Wrong
TTITLE1=No Place To Hide
TTITLE2=Deeper Than Crying
TTITLE3=I Can Let Go Now
TTITLE4=The Road Is A Lover
TTITLE5=Little Liza Jane
TTITLE6=It Doesn't Matter
TTITLE7=Find My Way Back To My Heart
TTITLE8=I'll Remember You, Love, In My Prayers
TTITLE9=Looking In The Eyes Of Love
TTITLE10=Pain Of A Troubled Life
TTITLE11=Happiness
TTITLE12=Blue Trail Of Sorrow
TTITLE13=There Is A Reason
EXTD=YEAR: 1997
EXTT0=
EXTT1=
EXTT2=
EXTT3=
EXTT4=
EXTT5=
EXTT6=
EXTT7=
EXTT8=
EXTT9=
EXTT10=
EXTT11=
EXTT12=
EXTT13=
PLAYORDER=
